# xmcd CD database file
#
# Track frame offsets:
#	150
#	13012
#	32295
#	55772
#	71390
#	105282
#	128042
#	154077
#	182342
#	197170
#	218480
#	251485
#
# Disc length: 3699 seconds
#
# Revision: 1
# Processed by: cddbd v1.5.1PL0 Copyright (c) Steve Scherf et al.
# Submitted via: CDex 1.51
#
DISCID=8c0e710c
DTITLE=風潮唱片 - 風潮12年精選
DYEAR=2000
DGENRE=New Age
TTITLE0=八千里路雲和月
TTITLE1=森林裡的珞巴人
TTITLE2=太魯閣
TTITLE3=歡樂歌
TTITLE4=璀璨
TTITLE5=落水天
TTITLE6=春芽
TTITLE7=寒山僧蹤
TTITLE8=青春舞曲
TTITLE9=彩雲追月
TTITLE10=小和尚
TTITLE11=茉莉花
EXTD=YEAR: 2000
EXTT0=
EXTT1=
EXTT2=
EXTT3=
EXTT4=
EXTT5=
EXTT6=
EXTT7=
EXTT8=
EXTT9=
EXTT10=
EXTT11=
PLAYORDER=
